<mxfile host="app.diagrams.net" modified="2023-07-05T09:12:18.870Z" agent="Mozilla/5.0 (Windows NT 10.0; Win64; x64) AppleWebKit/537.36 (KHTML, like Gecko) Chrome/114.0.0.0 Safari/537.36" etag="VJhEnWEDR8tzuxYSXXcm" version="21.5.2" type="device">
  <diagram name="Page-1" id="2YBvvXClWsGukQMizWep">
    <mxGraphModel dx="1376" dy="1106" grid="1" gridSize="10" guides="1" tooltips="1" connect="1" arrows="1" fold="1" page="1" pageScale="1" pageWidth="1100" pageHeight="1700" background="none" math="0" shadow="0">
      <root>
        <mxCell id="0" />
        <mxCell id="1" parent="0" />
        <mxCell id="GytFxfUlmVNDOT6ZbNBz-2" value="" style="endArrow=none;dashed=1;html=1;rounded=0;entryX=0.5;entryY=1;entryDx=0;entryDy=0;" edge="1" parent="1" source="GytFxfUlmVNDOT6ZbNBz-16" target="GytFxfUlmVNDOT6ZbNBz-5">
          <mxGeometry width="50" height="50" relative="1" as="geometry">
            <mxPoint x="305" y="680" as="sourcePoint" />
            <mxPoint x="305" y="320" as="targetPoint" />
          </mxGeometry>
        </mxCell>
        <mxCell id="GytFxfUlmVNDOT6ZbNBz-3" value="" style="endArrow=none;dashed=1;html=1;rounded=0;entryX=0.5;entryY=1;entryDx=0;entryDy=0;" edge="1" parent="1" source="GytFxfUlmVNDOT6ZbNBz-11" target="GytFxfUlmVNDOT6ZbNBz-8">
          <mxGeometry width="50" height="50" relative="1" as="geometry">
            <mxPoint x="115" y="640" as="sourcePoint" />
            <mxPoint x="645" y="410" as="targetPoint" />
          </mxGeometry>
        </mxCell>
        <mxCell id="GytFxfUlmVNDOT6ZbNBz-7" value="" style="group" vertex="1" connectable="0" parent="1">
          <mxGeometry x="255" y="240" width="200" height="40" as="geometry" />
        </mxCell>
        <mxCell id="GytFxfUlmVNDOT6ZbNBz-1" value="サーバー" style="rounded=0;whiteSpace=wrap;html=1;" vertex="1" parent="GytFxfUlmVNDOT6ZbNBz-7">
          <mxGeometry width="200" height="40" as="geometry" />
        </mxCell>
        <mxCell id="GytFxfUlmVNDOT6ZbNBz-5" value="RestAPI" style="text;html=1;strokeColor=none;fillColor=none;align=center;verticalAlign=middle;whiteSpace=wrap;rounded=0;" vertex="1" parent="GytFxfUlmVNDOT6ZbNBz-7">
          <mxGeometry y="25" width="100" height="15" as="geometry" />
        </mxCell>
        <mxCell id="GytFxfUlmVNDOT6ZbNBz-6" value="SSE Stream" style="text;html=1;strokeColor=none;fillColor=none;align=center;verticalAlign=middle;whiteSpace=wrap;rounded=0;" vertex="1" parent="GytFxfUlmVNDOT6ZbNBz-7">
          <mxGeometry x="100" y="25" width="100" height="15" as="geometry" />
        </mxCell>
        <mxCell id="GytFxfUlmVNDOT6ZbNBz-8" value="クライアント" style="rounded=0;whiteSpace=wrap;html=1;" vertex="1" parent="1">
          <mxGeometry x="55" y="240" width="120" height="40" as="geometry" />
        </mxCell>
        <mxCell id="GytFxfUlmVNDOT6ZbNBz-9" value="(相互)フォロワー&lt;br&gt;クライアント" style="rounded=0;whiteSpace=wrap;html=1;" vertex="1" parent="1">
          <mxGeometry x="495" y="240" width="120" height="40" as="geometry" />
        </mxCell>
        <mxCell id="GytFxfUlmVNDOT6ZbNBz-10" value="フォロイー&lt;br&gt;SSE Stream" style="rounded=0;whiteSpace=wrap;html=1;" vertex="1" parent="1">
          <mxGeometry x="955" y="240" width="120" height="40" as="geometry" />
        </mxCell>
        <mxCell id="GytFxfUlmVNDOT6ZbNBz-12" value="" style="endArrow=none;dashed=1;html=1;rounded=0;entryX=0.5;entryY=1;entryDx=0;entryDy=0;" edge="1" parent="1" target="GytFxfUlmVNDOT6ZbNBz-11">
          <mxGeometry width="50" height="50" relative="1" as="geometry">
            <mxPoint x="115" y="1120" as="sourcePoint" />
            <mxPoint x="115" y="280" as="targetPoint" />
          </mxGeometry>
        </mxCell>
        <mxCell id="GytFxfUlmVNDOT6ZbNBz-11" value="" style="html=1;points=[];perimeter=orthogonalPerimeter;outlineConnect=0;targetShapes=umlLifeline;portConstraint=eastwest;newEdgeStyle={&quot;edgeStyle&quot;:&quot;elbowEdgeStyle&quot;,&quot;elbow&quot;:&quot;vertical&quot;,&quot;curved&quot;:0,&quot;rounded&quot;:0};" vertex="1" parent="1">
          <mxGeometry x="110" y="320" width="10" height="740" as="geometry" />
        </mxCell>
        <mxCell id="GytFxfUlmVNDOT6ZbNBz-14" value="" style="endArrow=classic;html=1;rounded=0;startArrow=oval;startFill=1;" edge="1" parent="1">
          <mxGeometry width="50" height="50" relative="1" as="geometry">
            <mxPoint x="55" y="319" as="sourcePoint" />
            <mxPoint x="110" y="319" as="targetPoint" />
          </mxGeometry>
        </mxCell>
        <mxCell id="GytFxfUlmVNDOT6ZbNBz-15" value="接続" style="edgeLabel;html=1;align=center;verticalAlign=middle;resizable=0;points=[];" vertex="1" connectable="0" parent="GytFxfUlmVNDOT6ZbNBz-14">
          <mxGeometry x="-0.4545" y="-5" relative="1" as="geometry">
            <mxPoint x="5" y="-15" as="offset" />
          </mxGeometry>
        </mxCell>
        <mxCell id="GytFxfUlmVNDOT6ZbNBz-19" value="" style="endArrow=none;dashed=1;html=1;rounded=0;entryX=0.5;entryY=1;entryDx=0;entryDy=0;" edge="1" parent="1" source="GytFxfUlmVNDOT6ZbNBz-45" target="GytFxfUlmVNDOT6ZbNBz-16">
          <mxGeometry width="50" height="50" relative="1" as="geometry">
            <mxPoint x="305" y="1120" as="sourcePoint" />
            <mxPoint x="305" y="280" as="targetPoint" />
          </mxGeometry>
        </mxCell>
        <mxCell id="GytFxfUlmVNDOT6ZbNBz-16" value="" style="html=1;points=[];perimeter=orthogonalPerimeter;outlineConnect=0;targetShapes=umlLifeline;portConstraint=eastwest;newEdgeStyle={&quot;edgeStyle&quot;:&quot;elbowEdgeStyle&quot;,&quot;elbow&quot;:&quot;vertical&quot;,&quot;curved&quot;:0,&quot;rounded&quot;:0};" vertex="1" parent="1">
          <mxGeometry x="300" y="340" width="10" height="100" as="geometry" />
        </mxCell>
        <mxCell id="GytFxfUlmVNDOT6ZbNBz-20" value="" style="endArrow=classic;html=1;rounded=0;" edge="1" parent="1">
          <mxGeometry width="50" height="50" relative="1" as="geometry">
            <mxPoint x="300" y="350" as="sourcePoint" />
            <mxPoint x="120" y="350" as="targetPoint" />
          </mxGeometry>
        </mxCell>
        <mxCell id="GytFxfUlmVNDOT6ZbNBz-21" value="認証" style="endArrow=classic;html=1;rounded=0;" edge="1" parent="1">
          <mxGeometry x="0.0556" y="10" width="50" height="50" relative="1" as="geometry">
            <mxPoint x="120" y="340" as="sourcePoint" />
            <mxPoint x="300" y="340" as="targetPoint" />
            <mxPoint as="offset" />
          </mxGeometry>
        </mxCell>
        <mxCell id="GytFxfUlmVNDOT6ZbNBz-24" value="" style="endArrow=classic;html=1;rounded=0;" edge="1" parent="1">
          <mxGeometry width="50" height="50" relative="1" as="geometry">
            <mxPoint x="300" y="420" as="sourcePoint" />
            <mxPoint x="120" y="420" as="targetPoint" />
          </mxGeometry>
        </mxCell>
        <mxCell id="GytFxfUlmVNDOT6ZbNBz-57" value="フォロイー一覧" style="edgeLabel;html=1;align=center;verticalAlign=middle;resizable=0;points=[];" vertex="1" connectable="0" parent="GytFxfUlmVNDOT6ZbNBz-24">
          <mxGeometry x="0.0556" relative="1" as="geometry">
            <mxPoint x="10" y="-10" as="offset" />
          </mxGeometry>
        </mxCell>
        <mxCell id="GytFxfUlmVNDOT6ZbNBz-25" value="" style="endArrow=none;dashed=1;html=1;rounded=0;entryX=0.5;entryY=1;entryDx=0;entryDy=0;" edge="1" parent="1" source="GytFxfUlmVNDOT6ZbNBz-17" target="GytFxfUlmVNDOT6ZbNBz-10">
          <mxGeometry width="50" height="50" relative="1" as="geometry">
            <mxPoint x="1015" y="680" as="sourcePoint" />
            <mxPoint x="1010" y="290" as="targetPoint" />
          </mxGeometry>
        </mxCell>
        <mxCell id="GytFxfUlmVNDOT6ZbNBz-28" value="" style="endArrow=none;dashed=1;html=1;rounded=0;entryX=0.5;entryY=1;entryDx=0;entryDy=0;" edge="1" parent="1" target="GytFxfUlmVNDOT6ZbNBz-17">
          <mxGeometry width="50" height="50" relative="1" as="geometry">
            <mxPoint x="1015" y="1120" as="sourcePoint" />
            <mxPoint x="995" y="280" as="targetPoint" />
          </mxGeometry>
        </mxCell>
        <mxCell id="GytFxfUlmVNDOT6ZbNBz-17" value="" style="html=1;points=[];perimeter=orthogonalPerimeter;outlineConnect=0;targetShapes=umlLifeline;portConstraint=eastwest;newEdgeStyle={&quot;edgeStyle&quot;:&quot;elbowEdgeStyle&quot;,&quot;elbow&quot;:&quot;vertical&quot;,&quot;curved&quot;:0,&quot;rounded&quot;:0};" vertex="1" parent="1">
          <mxGeometry x="1010" y="460" width="10" height="175" as="geometry" />
        </mxCell>
        <mxCell id="GytFxfUlmVNDOT6ZbNBz-29" value="フォロイーTLへ接続" style="endArrow=classic;html=1;rounded=0;" edge="1" parent="1" target="GytFxfUlmVNDOT6ZbNBz-17">
          <mxGeometry x="-0.7865" y="10" width="50" height="50" relative="1" as="geometry">
            <mxPoint x="120" y="460" as="sourcePoint" />
            <mxPoint x="675" y="450" as="targetPoint" />
            <mxPoint as="offset" />
          </mxGeometry>
        </mxCell>
        <mxCell id="GytFxfUlmVNDOT6ZbNBz-35" value="" style="endArrow=none;dashed=1;html=1;rounded=0;entryX=0.6;entryY=1.133;entryDx=0;entryDy=0;entryPerimeter=0;" edge="1" parent="1" source="GytFxfUlmVNDOT6ZbNBz-39">
          <mxGeometry width="50" height="50" relative="1" as="geometry">
            <mxPoint x="405" y="1119" as="sourcePoint" />
            <mxPoint x="405" y="280.9949999999999" as="targetPoint" />
          </mxGeometry>
        </mxCell>
        <mxCell id="GytFxfUlmVNDOT6ZbNBz-36" value="" style="endArrow=none;dashed=1;html=1;rounded=0;entryX=0.5;entryY=1;entryDx=0;entryDy=0;" edge="1" parent="1" target="GytFxfUlmVNDOT6ZbNBz-9">
          <mxGeometry width="50" height="50" relative="1" as="geometry">
            <mxPoint x="555" y="640" as="sourcePoint" />
            <mxPoint x="545" y="331" as="targetPoint" />
          </mxGeometry>
        </mxCell>
        <mxCell id="GytFxfUlmVNDOT6ZbNBz-40" value="" style="endArrow=none;dashed=1;html=1;rounded=0;" edge="1" parent="1" target="GytFxfUlmVNDOT6ZbNBz-39">
          <mxGeometry width="50" height="50" relative="1" as="geometry">
            <mxPoint x="405" y="1119" as="sourcePoint" />
            <mxPoint x="405" y="280.9949999999999" as="targetPoint" />
          </mxGeometry>
        </mxCell>
        <mxCell id="GytFxfUlmVNDOT6ZbNBz-39" value="" style="html=1;points=[];perimeter=orthogonalPerimeter;outlineConnect=0;targetShapes=umlLifeline;portConstraint=eastwest;newEdgeStyle={&quot;edgeStyle&quot;:&quot;elbowEdgeStyle&quot;,&quot;elbow&quot;:&quot;vertical&quot;,&quot;curved&quot;:0,&quot;rounded&quot;:0};" vertex="1" parent="1">
          <mxGeometry x="400" y="761" width="10" height="100" as="geometry" />
        </mxCell>
        <mxCell id="GytFxfUlmVNDOT6ZbNBz-43" value="" style="endArrow=none;dashed=1;html=1;rounded=0;entryX=0.5;entryY=1;entryDx=0;entryDy=0;" edge="1" parent="1">
          <mxGeometry width="50" height="50" relative="1" as="geometry">
            <mxPoint x="555" y="1120" as="sourcePoint" />
            <mxPoint x="555" y="920" as="targetPoint" />
          </mxGeometry>
        </mxCell>
        <mxCell id="GytFxfUlmVNDOT6ZbNBz-44" value="フォロー要求" style="endArrow=classic;html=1;rounded=0;" edge="1" parent="1" target="GytFxfUlmVNDOT6ZbNBz-77">
          <mxGeometry y="10" width="50" height="50" relative="1" as="geometry">
            <mxPoint x="560" y="660" as="sourcePoint" />
            <mxPoint x="705" y="660" as="targetPoint" />
            <mxPoint as="offset" />
          </mxGeometry>
        </mxCell>
        <mxCell id="GytFxfUlmVNDOT6ZbNBz-46" value="" style="endArrow=none;dashed=1;html=1;rounded=0;entryX=0.5;entryY=1;entryDx=0;entryDy=0;" edge="1" parent="1" source="GytFxfUlmVNDOT6ZbNBz-52" target="GytFxfUlmVNDOT6ZbNBz-45">
          <mxGeometry width="50" height="50" relative="1" as="geometry">
            <mxPoint x="305" y="1320" as="sourcePoint" />
            <mxPoint x="305" y="710" as="targetPoint" />
          </mxGeometry>
        </mxCell>
        <mxCell id="GytFxfUlmVNDOT6ZbNBz-45" value="" style="html=1;points=[];perimeter=orthogonalPerimeter;outlineConnect=0;targetShapes=umlLifeline;portConstraint=eastwest;newEdgeStyle={&quot;edgeStyle&quot;:&quot;elbowEdgeStyle&quot;,&quot;elbow&quot;:&quot;vertical&quot;,&quot;curved&quot;:0,&quot;rounded&quot;:0};" vertex="1" parent="1">
          <mxGeometry x="300" y="640" width="10" height="80" as="geometry" />
        </mxCell>
        <mxCell id="GytFxfUlmVNDOT6ZbNBz-49" value="TLへ接続" style="endArrow=classic;html=1;rounded=0;" edge="1" parent="1">
          <mxGeometry x="-0.3571" y="-9" width="50" height="50" relative="1" as="geometry">
            <mxPoint x="550" y="760" as="sourcePoint" />
            <mxPoint x="410" y="760" as="targetPoint" />
            <mxPoint as="offset" />
          </mxGeometry>
        </mxCell>
        <mxCell id="GytFxfUlmVNDOT6ZbNBz-51" value="ツイート" style="endArrow=classic;html=1;rounded=0;" edge="1" parent="1">
          <mxGeometry x="0.0556" y="10" width="50" height="50" relative="1" as="geometry">
            <mxPoint x="120" y="781" as="sourcePoint" />
            <mxPoint x="300" y="781" as="targetPoint" />
            <mxPoint as="offset" />
          </mxGeometry>
        </mxCell>
        <mxCell id="GytFxfUlmVNDOT6ZbNBz-53" value="" style="endArrow=none;dashed=1;html=1;rounded=0;entryX=0.5;entryY=1;entryDx=0;entryDy=0;" edge="1" parent="1" source="GytFxfUlmVNDOT6ZbNBz-102" target="GytFxfUlmVNDOT6ZbNBz-52">
          <mxGeometry width="50" height="50" relative="1" as="geometry">
            <mxPoint x="305" y="1120" as="sourcePoint" />
            <mxPoint x="305" y="600" as="targetPoint" />
          </mxGeometry>
        </mxCell>
        <mxCell id="GytFxfUlmVNDOT6ZbNBz-52" value="" style="html=1;points=[];perimeter=orthogonalPerimeter;outlineConnect=0;targetShapes=umlLifeline;portConstraint=eastwest;newEdgeStyle={&quot;edgeStyle&quot;:&quot;elbowEdgeStyle&quot;,&quot;elbow&quot;:&quot;vertical&quot;,&quot;curved&quot;:0,&quot;rounded&quot;:0};" vertex="1" parent="1">
          <mxGeometry x="300" y="781" width="10" height="80" as="geometry" />
        </mxCell>
        <mxCell id="GytFxfUlmVNDOT6ZbNBz-54" value="ツイート" style="endArrow=classic;html=1;rounded=0;" edge="1" parent="1">
          <mxGeometry y="10" width="50" height="50" relative="1" as="geometry">
            <mxPoint x="310" y="799.5" as="sourcePoint" />
            <mxPoint x="400" y="799.5" as="targetPoint" />
            <mxPoint y="1" as="offset" />
          </mxGeometry>
        </mxCell>
        <mxCell id="GytFxfUlmVNDOT6ZbNBz-55" value="TL" style="endArrow=classic;html=1;rounded=0;" edge="1" parent="1">
          <mxGeometry x="0.0556" y="10" width="50" height="50" relative="1" as="geometry">
            <mxPoint x="410" y="821" as="sourcePoint" />
            <mxPoint x="550" y="821" as="targetPoint" />
            <mxPoint as="offset" />
          </mxGeometry>
        </mxCell>
        <mxCell id="GytFxfUlmVNDOT6ZbNBz-56" value="過去ツイートを取得" style="endArrow=classic;html=1;rounded=0;entryX=0.5;entryY=0.125;entryDx=0;entryDy=0;entryPerimeter=0;" edge="1" parent="1">
          <mxGeometry x="-0.4583" y="-9" width="50" height="50" relative="1" as="geometry">
            <mxPoint x="550" y="640" as="sourcePoint" />
            <mxPoint x="310" y="640" as="targetPoint" />
            <mxPoint as="offset" />
          </mxGeometry>
        </mxCell>
        <mxCell id="GytFxfUlmVNDOT6ZbNBz-58" value="" style="endArrow=classic;html=1;rounded=0;" edge="1" parent="1">
          <mxGeometry width="50" height="50" relative="1" as="geometry">
            <mxPoint x="300" y="691" as="sourcePoint" />
            <mxPoint x="120" y="691" as="targetPoint" />
          </mxGeometry>
        </mxCell>
        <mxCell id="GytFxfUlmVNDOT6ZbNBz-59" value="フォロー通知" style="edgeLabel;html=1;align=center;verticalAlign=middle;resizable=0;points=[];" vertex="1" connectable="0" parent="GytFxfUlmVNDOT6ZbNBz-58">
          <mxGeometry x="0.0556" relative="1" as="geometry">
            <mxPoint x="10" y="-10" as="offset" />
          </mxGeometry>
        </mxCell>
        <mxCell id="GytFxfUlmVNDOT6ZbNBz-67" value="" style="endArrow=none;dashed=1;html=1;rounded=0;entryX=0.5;entryY=1;entryDx=0;entryDy=0;" edge="1" parent="1" source="GytFxfUlmVNDOT6ZbNBz-78" target="GytFxfUlmVNDOT6ZbNBz-99">
          <mxGeometry width="50" height="50" relative="1" as="geometry">
            <mxPoint x="805" y="1000" as="sourcePoint" />
            <mxPoint x="775" y="280" as="targetPoint" />
          </mxGeometry>
        </mxCell>
        <mxCell id="GytFxfUlmVNDOT6ZbNBz-70" value="" style="endArrow=classic;html=1;rounded=0;" edge="1" parent="1">
          <mxGeometry width="50" height="50" relative="1" as="geometry">
            <mxPoint x="1015" y="590" as="sourcePoint" />
            <mxPoint x="120" y="590" as="targetPoint" />
          </mxGeometry>
        </mxCell>
        <mxCell id="GytFxfUlmVNDOT6ZbNBz-71" value="TL" style="edgeLabel;html=1;align=center;verticalAlign=middle;resizable=0;points=[];" vertex="1" connectable="0" parent="GytFxfUlmVNDOT6ZbNBz-70">
          <mxGeometry x="-0.1701" y="5" relative="1" as="geometry">
            <mxPoint x="-297" y="-17" as="offset" />
          </mxGeometry>
        </mxCell>
        <mxCell id="GytFxfUlmVNDOT6ZbNBz-72" value="" style="endArrow=classic;html=1;rounded=0;" edge="1" parent="1">
          <mxGeometry width="50" height="50" relative="1" as="geometry">
            <mxPoint x="1010" y="570" as="sourcePoint" />
            <mxPoint x="120" y="570" as="targetPoint" />
          </mxGeometry>
        </mxCell>
        <mxCell id="GytFxfUlmVNDOT6ZbNBz-73" value="TL" style="edgeLabel;html=1;align=center;verticalAlign=middle;resizable=0;points=[];" vertex="1" connectable="0" parent="GytFxfUlmVNDOT6ZbNBz-72">
          <mxGeometry x="-0.1701" y="5" relative="1" as="geometry">
            <mxPoint x="-297" y="-17" as="offset" />
          </mxGeometry>
        </mxCell>
        <mxCell id="GytFxfUlmVNDOT6ZbNBz-74" value="" style="endArrow=classic;html=1;rounded=0;" edge="1" parent="1" source="GytFxfUlmVNDOT6ZbNBz-78">
          <mxGeometry width="50" height="50" relative="1" as="geometry">
            <mxPoint x="770" y="520" as="sourcePoint" />
            <mxPoint x="120" y="520" as="targetPoint" />
          </mxGeometry>
        </mxCell>
        <mxCell id="GytFxfUlmVNDOT6ZbNBz-75" value="TL" style="edgeLabel;html=1;align=center;verticalAlign=middle;resizable=0;points=[];" vertex="1" connectable="0" parent="GytFxfUlmVNDOT6ZbNBz-74">
          <mxGeometry x="-0.1701" y="5" relative="1" as="geometry">
            <mxPoint x="-297" y="-17" as="offset" />
          </mxGeometry>
        </mxCell>
        <mxCell id="GytFxfUlmVNDOT6ZbNBz-76" value="フォロイーTLへ接続" style="endArrow=classic;html=1;rounded=0;" edge="1" parent="1" target="GytFxfUlmVNDOT6ZbNBz-78">
          <mxGeometry x="-0.7164" y="10" width="50" height="50" relative="1" as="geometry">
            <mxPoint x="120" y="480" as="sourcePoint" />
            <mxPoint x="770" y="480" as="targetPoint" />
            <mxPoint as="offset" />
          </mxGeometry>
        </mxCell>
        <mxCell id="GytFxfUlmVNDOT6ZbNBz-80" value="" style="endArrow=none;dashed=1;html=1;rounded=0;entryX=0.5;entryY=1;entryDx=0;entryDy=0;" edge="1" parent="1" source="GytFxfUlmVNDOT6ZbNBz-77" target="GytFxfUlmVNDOT6ZbNBz-98">
          <mxGeometry width="50" height="50" relative="1" as="geometry">
            <mxPoint x="695" y="1120" as="sourcePoint" />
            <mxPoint x="695" y="280" as="targetPoint" />
          </mxGeometry>
        </mxCell>
        <mxCell id="GytFxfUlmVNDOT6ZbNBz-82" value="" style="endArrow=none;dashed=1;html=1;rounded=0;entryX=0.5;entryY=1;entryDx=0;entryDy=0;" edge="1" parent="1" target="GytFxfUlmVNDOT6ZbNBz-77">
          <mxGeometry width="50" height="50" relative="1" as="geometry">
            <mxPoint x="705" y="1120" as="sourcePoint" />
            <mxPoint x="695" y="280" as="targetPoint" />
          </mxGeometry>
        </mxCell>
        <mxCell id="GytFxfUlmVNDOT6ZbNBz-77" value="" style="html=1;points=[];perimeter=orthogonalPerimeter;outlineConnect=0;targetShapes=umlLifeline;portConstraint=eastwest;newEdgeStyle={&quot;edgeStyle&quot;:&quot;elbowEdgeStyle&quot;,&quot;elbow&quot;:&quot;vertical&quot;,&quot;curved&quot;:0,&quot;rounded&quot;:0};" vertex="1" parent="1">
          <mxGeometry x="700" y="660" width="10" height="340" as="geometry" />
        </mxCell>
        <mxCell id="GytFxfUlmVNDOT6ZbNBz-86" value="" style="html=1;points=[];perimeter=orthogonalPerimeter;outlineConnect=0;targetShapes=umlLifeline;portConstraint=eastwest;newEdgeStyle={&quot;edgeStyle&quot;:&quot;elbowEdgeStyle&quot;,&quot;elbow&quot;:&quot;vertical&quot;,&quot;curved&quot;:0,&quot;rounded&quot;:0};" vertex="1" parent="1">
          <mxGeometry x="550" y="640" width="10" height="320" as="geometry" />
        </mxCell>
        <mxCell id="GytFxfUlmVNDOT6ZbNBz-87" value="" style="endArrow=classic;html=1;rounded=0;" edge="1" parent="1" source="GytFxfUlmVNDOT6ZbNBz-77">
          <mxGeometry width="50" height="50" relative="1" as="geometry">
            <mxPoint x="690" y="679.5" as="sourcePoint" />
            <mxPoint x="310" y="679.5" as="targetPoint" />
          </mxGeometry>
        </mxCell>
        <mxCell id="GytFxfUlmVNDOT6ZbNBz-88" value="フォロー" style="edgeLabel;html=1;align=center;verticalAlign=middle;resizable=0;points=[];" vertex="1" connectable="0" parent="GytFxfUlmVNDOT6ZbNBz-87">
          <mxGeometry x="0.0556" relative="1" as="geometry">
            <mxPoint x="10" y="-10" as="offset" />
          </mxGeometry>
        </mxCell>
        <mxCell id="GytFxfUlmVNDOT6ZbNBz-89" value="" style="endArrow=classic;html=1;rounded=0;" edge="1" parent="1" target="GytFxfUlmVNDOT6ZbNBz-77">
          <mxGeometry x="0.4583" y="9" width="50" height="50" relative="1" as="geometry">
            <mxPoint x="310" y="700" as="sourcePoint" />
            <mxPoint x="690" y="700" as="targetPoint" />
            <mxPoint as="offset" />
          </mxGeometry>
        </mxCell>
        <mxCell id="GytFxfUlmVNDOT6ZbNBz-90" value="フォロー成功" style="endArrow=classic;html=1;rounded=0;" edge="1" parent="1" source="GytFxfUlmVNDOT6ZbNBz-77">
          <mxGeometry y="-10" width="50" height="50" relative="1" as="geometry">
            <mxPoint x="690" y="730" as="sourcePoint" />
            <mxPoint x="560" y="730" as="targetPoint" />
            <mxPoint as="offset" />
          </mxGeometry>
        </mxCell>
        <mxCell id="GytFxfUlmVNDOT6ZbNBz-95" value="リスト追加" style="endArrow=classic;html=1;rounded=0;" edge="1" parent="1" target="GytFxfUlmVNDOT6ZbNBz-77">
          <mxGeometry y="10" width="50" height="50" relative="1" as="geometry">
            <mxPoint x="560" y="880" as="sourcePoint" />
            <mxPoint x="690" y="880" as="targetPoint" />
            <mxPoint as="offset" />
          </mxGeometry>
        </mxCell>
        <mxCell id="GytFxfUlmVNDOT6ZbNBz-96" value="" style="group" vertex="1" connectable="0" parent="1">
          <mxGeometry x="655" y="240" width="200" height="40" as="geometry" />
        </mxCell>
        <mxCell id="GytFxfUlmVNDOT6ZbNBz-97" value="サーバー" style="rounded=0;whiteSpace=wrap;html=1;" vertex="1" parent="GytFxfUlmVNDOT6ZbNBz-96">
          <mxGeometry width="200" height="40" as="geometry" />
        </mxCell>
        <mxCell id="GytFxfUlmVNDOT6ZbNBz-98" value="RestAPI" style="text;html=1;strokeColor=none;fillColor=none;align=center;verticalAlign=middle;whiteSpace=wrap;rounded=0;" vertex="1" parent="GytFxfUlmVNDOT6ZbNBz-96">
          <mxGeometry y="25" width="100" height="15" as="geometry" />
        </mxCell>
        <mxCell id="GytFxfUlmVNDOT6ZbNBz-99" value="SSE Stream" style="text;html=1;strokeColor=none;fillColor=none;align=center;verticalAlign=middle;whiteSpace=wrap;rounded=0;" vertex="1" parent="GytFxfUlmVNDOT6ZbNBz-96">
          <mxGeometry x="100" y="25" width="100" height="15" as="geometry" />
        </mxCell>
        <mxCell id="GytFxfUlmVNDOT6ZbNBz-100" value="" style="endArrow=none;dashed=1;html=1;rounded=0;entryX=0.5;entryY=1;entryDx=0;entryDy=0;" edge="1" parent="1" target="GytFxfUlmVNDOT6ZbNBz-78">
          <mxGeometry width="50" height="50" relative="1" as="geometry">
            <mxPoint x="805" y="1120" as="sourcePoint" />
            <mxPoint x="805" y="280" as="targetPoint" />
          </mxGeometry>
        </mxCell>
        <mxCell id="GytFxfUlmVNDOT6ZbNBz-78" value="" style="html=1;points=[];perimeter=orthogonalPerimeter;outlineConnect=0;targetShapes=umlLifeline;portConstraint=eastwest;newEdgeStyle={&quot;edgeStyle&quot;:&quot;elbowEdgeStyle&quot;,&quot;elbow&quot;:&quot;vertical&quot;,&quot;curved&quot;:0,&quot;rounded&quot;:0};" vertex="1" parent="1">
          <mxGeometry x="800" y="480" width="10" height="600" as="geometry" />
        </mxCell>
        <mxCell id="GytFxfUlmVNDOT6ZbNBz-101" value="鍵払い出し" style="endArrow=classic;html=1;rounded=0;" edge="1" parent="1" source="GytFxfUlmVNDOT6ZbNBz-77" target="GytFxfUlmVNDOT6ZbNBz-102">
          <mxGeometry x="-0.6667" y="-10" width="50" height="50" relative="1" as="geometry">
            <mxPoint x="700" y="900" as="sourcePoint" />
            <mxPoint x="315" y="910" as="targetPoint" />
            <mxPoint as="offset" />
          </mxGeometry>
        </mxCell>
        <mxCell id="GytFxfUlmVNDOT6ZbNBz-103" value="" style="endArrow=none;dashed=1;html=1;rounded=0;entryX=0.5;entryY=1;entryDx=0;entryDy=0;" edge="1" parent="1" target="GytFxfUlmVNDOT6ZbNBz-102">
          <mxGeometry width="50" height="50" relative="1" as="geometry">
            <mxPoint x="305" y="1120" as="sourcePoint" />
            <mxPoint x="305" y="861" as="targetPoint" />
          </mxGeometry>
        </mxCell>
        <mxCell id="GytFxfUlmVNDOT6ZbNBz-102" value="" style="html=1;points=[];perimeter=orthogonalPerimeter;outlineConnect=0;targetShapes=umlLifeline;portConstraint=eastwest;newEdgeStyle={&quot;edgeStyle&quot;:&quot;elbowEdgeStyle&quot;,&quot;elbow&quot;:&quot;vertical&quot;,&quot;curved&quot;:0,&quot;rounded&quot;:0};" vertex="1" parent="1">
          <mxGeometry x="300" y="900" width="10" height="80" as="geometry" />
        </mxCell>
        <mxCell id="GytFxfUlmVNDOT6ZbNBz-104" value="鍵払い出し" style="endArrow=classic;html=1;rounded=0;" edge="1" parent="1" source="GytFxfUlmVNDOT6ZbNBz-102">
          <mxGeometry x="-0.1667" y="-10" width="50" height="50" relative="1" as="geometry">
            <mxPoint x="300" y="920" as="sourcePoint" />
            <mxPoint x="120" y="920" as="targetPoint" />
            <mxPoint as="offset" />
          </mxGeometry>
        </mxCell>
        <mxCell id="GytFxfUlmVNDOT6ZbNBz-105" value="限定ツイート" style="endArrow=classic;html=1;rounded=0;" edge="1" parent="1" source="GytFxfUlmVNDOT6ZbNBz-86">
          <mxGeometry y="10" width="50" height="50" relative="1" as="geometry">
            <mxPoint x="560" y="939.5" as="sourcePoint" />
            <mxPoint x="700" y="939.5" as="targetPoint" />
            <mxPoint as="offset" />
          </mxGeometry>
        </mxCell>
        <mxCell id="GytFxfUlmVNDOT6ZbNBz-106" value="限定ツイート" style="endArrow=classic;html=1;rounded=0;" edge="1" parent="1">
          <mxGeometry y="10" width="50" height="50" relative="1" as="geometry">
            <mxPoint x="710" y="960" as="sourcePoint" />
            <mxPoint x="800" y="960" as="targetPoint" />
            <mxPoint as="offset" />
          </mxGeometry>
        </mxCell>
        <mxCell id="GytFxfUlmVNDOT6ZbNBz-107" value="限定TL" style="endArrow=classic;html=1;rounded=0;" edge="1" parent="1">
          <mxGeometry x="-0.1029" y="-10" width="50" height="50" relative="1" as="geometry">
            <mxPoint x="800" y="1020" as="sourcePoint" />
            <mxPoint x="120" y="1020" as="targetPoint" />
            <mxPoint as="offset" />
          </mxGeometry>
        </mxCell>
        <mxCell id="GytFxfUlmVNDOT6ZbNBz-108" value="鍵で復号化" style="text;html=1;strokeColor=none;fillColor=none;align=center;verticalAlign=middle;whiteSpace=wrap;rounded=0;" vertex="1" parent="1">
          <mxGeometry x="40" y="1000" width="70" height="30" as="geometry" />
        </mxCell>
        <mxCell id="GytFxfUlmVNDOT6ZbNBz-125" value="外向けにはRestでよいが、自分向けにはgraphQLにしておいたほうが良さそう" style="text;html=1;strokeColor=#b85450;fillColor=#f8cecc;align=center;verticalAlign=middle;whiteSpace=wrap;rounded=0;opacity=80;" vertex="1" parent="1">
          <mxGeometry x="200" y="180" width="190" height="70" as="geometry" />
        </mxCell>
        <mxCell id="GytFxfUlmVNDOT6ZbNBz-126" value="フォロワーが増えてもSSEならfastly経由で複数人にpushできるのでは" style="text;html=1;strokeColor=#b85450;fillColor=#f8cecc;align=center;verticalAlign=middle;whiteSpace=wrap;rounded=0;opacity=80;" vertex="1" parent="1">
          <mxGeometry x="810" y="1040" width="160" height="70" as="geometry" />
        </mxCell>
        <mxCell id="GytFxfUlmVNDOT6ZbNBz-127" value="フォローされたらデータを払い出すが、リムーブ通知があるわけではない。" style="text;html=1;strokeColor=#b85450;fillColor=#f8cecc;align=center;verticalAlign=middle;whiteSpace=wrap;rounded=0;opacity=80;" vertex="1" parent="1">
          <mxGeometry x="170" y="1110" width="150" height="70" as="geometry" />
        </mxCell>
        <mxCell id="GytFxfUlmVNDOT6ZbNBz-131" value="TL取得系のRestAPIは相互のみに限定しないとevilが発生する。&lt;br&gt;その代わり多少複雑な検索ができたほうがいい。" style="text;html=1;strokeColor=#b85450;fillColor=#f8cecc;align=center;verticalAlign=middle;whiteSpace=wrap;rounded=0;opacity=80;" vertex="1" parent="1">
          <mxGeometry x="455" y="1120" width="182.5" height="70" as="geometry" />
        </mxCell>
        <mxCell id="GytFxfUlmVNDOT6ZbNBz-132" value="最後にStreamに接続された日時を見れば、わからなくはない&lt;br&gt;（そこまでして知りたいか？）" style="text;html=1;strokeColor=#b85450;fillColor=#f8cecc;align=center;verticalAlign=middle;whiteSpace=wrap;rounded=0;opacity=80;" vertex="1" parent="1">
          <mxGeometry x="190" y="1170" width="175" height="70" as="geometry" />
        </mxCell>
        <mxCell id="GytFxfUlmVNDOT6ZbNBz-134" value="fastlyの課金量はわからん" style="text;html=1;strokeColor=#b85450;fillColor=#f8cecc;align=center;verticalAlign=middle;whiteSpace=wrap;rounded=0;opacity=80;" vertex="1" parent="1">
          <mxGeometry x="830" y="1100" width="160" height="40" as="geometry" />
        </mxCell>
        <mxCell id="GytFxfUlmVNDOT6ZbNBz-136" value="全員に同じTLを送信することになる" style="text;html=1;strokeColor=#b85450;fillColor=#f8cecc;align=center;verticalAlign=middle;whiteSpace=wrap;rounded=0;opacity=80;" vertex="1" parent="1">
          <mxGeometry x="855" y="1130" width="175" height="70" as="geometry" />
        </mxCell>
        <mxCell id="GytFxfUlmVNDOT6ZbNBz-137" value="フォロワーに共通鍵を配布しておいて、複合させる。&lt;br&gt;限定ツイートは別の鍵を特定ユーザーへ払い出しておけば、一部の人しか復号化できない" style="text;html=1;strokeColor=#b85450;fillColor=#f8cecc;align=center;verticalAlign=middle;whiteSpace=wrap;rounded=0;opacity=80;" vertex="1" parent="1">
          <mxGeometry x="880" y="1190" width="175" height="100" as="geometry" />
        </mxCell>
        <mxCell id="GytFxfUlmVNDOT6ZbNBz-138" value="復号できないツイートを送信するのはevilだが、復号されるリスクはサークルツイートがバグで公開される可能性よりは低い" style="text;html=1;strokeColor=#b85450;fillColor=#f8cecc;align=center;verticalAlign=middle;whiteSpace=wrap;rounded=0;opacity=80;" vertex="1" parent="1">
          <mxGeometry x="900" y="1280" width="175" height="100" as="geometry" />
        </mxCell>
      </root>
    </mxGraphModel>
  </diagram>
</mxfile>
